<svg id="Layer_3" height="512" viewBox="0 0 64 64" width="512" xmlns="http://www.w3.org/2000/svg" data-name="Layer 3"><path d="m28 38a6 6 0 1 0 -6-6 6.006 6.006 0 0 0 6 6zm0-10a4 4 0 1 1 -4 4 4 4 0 0 1 4-4z"/><path d="m28 42a10 10 0 1 0 -10-10 10.011 10.011 0 0 0 10 10zm0-18a8 8 0 1 1 -8 8 8.009 8.009 0 0 1 8-8z"/><path d="m28 59a27.165 27.165 0 0 0 4.008-.3 27.385 27.385 0 0 0 3.992.3 27 27 0 1 0 -3.993-53.7 27 27 0 1 0 -4.007 53.7zm-21.326-13.97 7.078-5.787a16.025 16.025 0 0 0 2.433 3.508l-4.379 8.273a25.172 25.172 0 0 1 -5.132-5.994zm-3.674-13.03a24.944 24.944 0 0 1 .7-5.867l9.093.913a15.881 15.881 0 0 0 -.757 4.2l-8.949 2.754c-.052-.658-.087-1.325-.087-2zm19.671-15.068-5.925-7.245a24.8 24.8 0 0 1 7.232-2.359l2.689 8.74a15.829 15.829 0 0 0 -3.996.864zm5.329 1.068a14 14 0 1 1 -14 14 14.015 14.015 0 0 1 14-14zm14.6-6.278-4.278 8.078a16.028 16.028 0 0 0 -3.436-2.215l.935-9.32a24.927 24.927 0 0 1 6.779 3.457zm18.4 20.278a24.944 24.944 0 0 1 -.7 5.867l-5.82-.584a27.059 27.059 0 0 0 .52-5.283c0-.061 0-.122-.005-.183l5.918-1.817c.052.658.087 1.325.087 2zm-19.97 21.326-5.787-7.078a16.025 16.025 0 0 0 3.508-2.433l8.272 4.379a25.168 25.168 0 0 1 -5.993 5.132zm-9.008 3.346-2.689-8.74a15.829 15.829 0 0 0 4-.864l5.924 7.245a24.781 24.781 0 0 1 -7.235 2.359zm16.256-10.072-8.073-4.274a16.053 16.053 0 0 0 2.215-3.436l9.32.935a24.927 24.927 0 0 1 -3.462 6.775zm1.049-27.63-7.079 5.787a16 16 0 0 0 -2.433-3.508l4.379-8.272a25.172 25.172 0 0 1 5.133 5.993zm-5.365 13.78 8.951-2.75c.052.662.087 1.329.087 2a24.944 24.944 0 0 1 -.7 5.867l-9.093-.912a15.9 15.9 0 0 0 .755-4.205zm10.043 6.495 5.735.576a24.927 24.927 0 0 1 -3.462 6.779l-4.272-2.262a26.861 26.861 0 0 0 1.999-5.093zm.894-9.491a26.694 26.694 0 0 0 -1.007-5.393l4.421-3.614a24.781 24.781 0 0 1 2.359 7.231zm-2.227-1.776-8.74 2.689a15.846 15.846 0 0 0 -.864-4l7.245-5.923a24.751 24.751 0 0 1 2.359 7.234zm-9.027-17.963.176-1.755a24.942 24.942 0 0 1 6.779 3.462l-1.7 3.205a27.236 27.236 0 0 0 -5.255-4.912zm-25.966 34.19a16.021 16.021 0 0 0 3.435 2.215l-.935 9.32a24.921 24.921 0 0 1 -6.774-3.462zm-4.1-19.091-9.32-.935a24.921 24.921 0 0 1 3.462-6.774l8.079 4.273a16.039 16.039 0 0 0 -2.22 3.436zm-1.512 8.219a15.829 15.829 0 0 0 .864 4l-7.244 5.92a24.781 24.781 0 0 1 -2.359-7.231zm10.066 22.967.912-9.093a15.881 15.881 0 0 0 4.2.757l2.755 8.949c-.661.052-1.328.087-2 .087a24.944 24.944 0 0 1 -5.867-.7zm23.543-3.914 1.577 1.929a24.8 24.8 0 0 1 -8.753 2.56 27.087 27.087 0 0 0 7.176-4.491zm3.354.942-1.886-2.307a27.188 27.188 0 0 0 3.884-4.94l4 2.115a25.168 25.168 0 0 1 -5.998 5.13zm8.3-34.356-4.121 3.369a26.953 26.953 0 0 0 -2.98-5.645l1.968-3.717a25.194 25.194 0 0 1 5.13 5.991zm-15.463-11.272-.109 1.079a26.927 26.927 0 0 0 -3.258-1.654 24.917 24.917 0 0 1 3.367.575zm-8 0-.912 9.1a15.881 15.881 0 0 0 -4.2-.757l-2.755-8.956c.658-.052 1.325-.087 2-.087a24.944 24.944 0 0 1 5.867.7zm-18.9 2.972 5.787 7.078a16.025 16.025 0 0 0 -3.508 2.433l-8.269-4.377a25.148 25.148 0 0 1 5.993-5.132z"/></svg>