<svg height="512" viewBox="0 0 56 60" width="512" xmlns="http://www.w3.org/2000/svg"><g id="Page-1" fill="none" fill-rule="evenodd"><g id="024---Sink" fill="rgb(0,0,0)" fill-rule="nonzero" transform="translate(0 -1)"><path id="Shape" d="m19 17h-4c-1.6568542 0-3 1.3431458-3 3v3h-9c-1.4679927-.003682-2.72182405 1.058199-2.9598965 2.506763s.6099439 2.8558851 2.0018965 3.322237c.44468739 9.0460286 7.90105979 16.1563599 16.958 16.171h3v3c.0052514 1.2667854.8056491 2.3937454 2 2.816v6.184c.0000001 2.209139 1.790861 3.9999999 4 3.9999999s3.9999999-1.7908609 4-3.9999999v-6.184c1.1943509-.4222546 1.9947486-1.5492146 2-2.816v-3h3c9.0569402-.0146401 16.5133126-7.1249714 16.958-16.171 1.3919526-.4663519 2.2399689-1.873673 2.0018965-3.322237-.2380725-1.448564-1.4919038-2.510445-2.9598965-2.506763h-9v-3c0-1.6568542-1.3431458-3-3-3h-4c-1.6568542 0-3 1.3431458-3 3v3h-3v-14c-.0023556-2.3039949-.9968357-4.4953757-2.7293336-6.01420717-1.7324979-1.51883146-4.0351781-2.21797695-6.3196664-1.91879283-4.0392662.59769908-7.0115275 4.09420049-6.951 8.177v.756c0 1.1045695.8954305 2 2 2h2c1.1045695 0 2-.8954305 2-2v-1c-.0005571-.60214961.2702137-1.17250254.7371409-1.5527175.4669273-.38021496 1.0803093-.52982026 1.6698591-.4072825.9526335.23334142 1.6150638 1.09745323 1.593 2.078v13.882h-3v-3c0-1.6568542-1.3431458-3-3-3zm-5 3c0-.5522847.4477153-1 1-1h4c.5522847 0 1 .4477153 1 1v3h-6zm16 37c0 1.1045695-.8954305 2-2 2s-2-.8954305-2-2v-6h4zm2-9c0 .5522847-.4477153 1-1 1h-6c-.5522847 0-1-.4477153-1-1v-3h8zm5-5h-18c-7.8921695-.01012-14.4305634-6.1260761-14.967-14h47.934c-.5364366 7.8739239-7.0748305 13.98988-14.967 14zm17-17c0 .5522847-.4477153 1-1 1h-50c-.55228475 0-1-.4477153-1-1s.44771525-1 1-1h50c.5522847 0 1 .4477153 1 1zm-18-6c0-.5522847.4477153-1 1-1h4c.5522847 0 1 .4477153 1 1v3h-6zm-12.211-14.923c-1.1758949-.23659367-2.3958986.06698894-3.3237807.82708115-.9278821.7600922-1.4656952 1.89645848-1.4652193 3.09591885v1h-2v-.756c-.0618515-3.07727025 2.1638971-5.72499609 5.206-6.193 1.7142436-.22588179 3.4427137.29761605 4.7435617 1.4366718 1.300848 1.13905576 2.0479915 2.78326847 2.0504383 4.5123282v14h-2v-13.882c.0314098-1.94076015-1.3133299-3.63309694-3.211-4.041z"/></g></g></svg>