<svg id="Capa_1" enable-background="new 0 0 512 512" height="512" viewBox="0 0 512 512" width="512" xmlns="http://www.w3.org/2000/svg"><g><path d="m446.828 6.917h-31.876c-6.188 0-11.574 3.498-14.28 8.617h-13.788c-.056 0-.11 0-.166.002-1.895.043-2.252-.175-4.979-2.162-.464-.338-13.864-13.374-37.925-13.374h-65.115c-38.292 0-71.821 14.387-99.656 42.762-25.909 26.411-40.831 59.492-45.738 70.372-1.394 3.1-5.636 12.536 1.103 17.286 2.999 2.112 7.974 2.667 12.974-2.134 17.117-16.583 42.463-26.666 67.799-26.971 4.143-.05 7.459-3.448 7.409-7.59-.049-4.111-3.396-7.41-7.497-7.41-.03 0-.062 0-.092 0-21.742.261-42.909 6.503-60.575 17.55 30.863-59.759 71.639-88.865 124.273-88.865h65.115c17.936.125 28.681 10.198 29.09 10.496 3.325 2.423 7.134 5.178 14.056 5.038h19.355c4.143 0 7.5-3.358 7.5-7.5 0-.595.531-1.117 1.137-1.117h31.876c.605 0 1.137.522 1.137 1.117v91.475c0 .595-.531 1.117-1.137 1.117h-31.876c-.605 0-1.137-.522-1.137-1.117 0-2.008-.805-3.931-2.234-5.341-1.43-1.409-3.337-2.182-5.372-2.158-9.676.136-19.788-.001-21.371-.001-20.392 0-32.709 9.52-35.346 27.014h-56.045c-6.229-18.673-20.328-33.123-40.241-41.052-3.847-1.533-8.21.344-9.742 4.193-1.532 3.848.345 8.21 4.193 9.742 12.048 4.797 27.402 14.858 32.633 35.558v85.99c-7.86 3.482-15.128 8.696-21.038 15.329-13.19 14.88-34.453 21.229-71.095 21.229h-38.095c-3.178-9.76-12.38-16.838-23.212-16.838h-53.439c-13.441 0-24.376 10.918-24.376 24.338v147.288c0 13.436 10.935 24.366 24.376 24.366h53.438c10.836 0 20.04-7.09 23.215-16.866h64.855c19.214 0 20.518 1.821 28.995 13.667 1.429 1.996 3.048 4.258 4.915 6.741 7.608 10.169 22.433 15.954 31.46 18.678v27.314c0 10.09 8.22 18.3 18.324 18.3h47.019c10.104 0 18.324-8.209 18.324-18.3v-23.426h47.188c17.091 0 30.995-13.881 30.995-30.943 0-9.09-3.948-17.277-10.222-22.943 8.241-6.264 13.573-16.15 13.573-27.259 0-8.828-3.361-16.885-8.87-22.969 11.193-5.661 18.9-17.257 18.9-30.577 0-10.83-5.061-20.496-12.94-26.784 7.879-6.283 12.94-15.942 12.94-26.762 0-18.89-15.408-34.259-34.348-34.259h-31.989v-2.365c0-12.06-9.852-21.872-21.961-21.872h-3.267v-82.019c0-13.678 6.245-19.514 20.881-19.514 1.509 0 9.915.114 15.868.065 2.718 5.084 8.084 8.552 14.246 8.552h31.876c8.897 0 16.137-7.23 16.137-16.117v-91.474c.002-8.888-7.237-16.117-16.135-16.117zm-151.538 142.105h53.667v74.519h-46.252c-2.471 0-4.948.203-7.415.559zm53.667 344.678c0 1.789-1.522 3.3-3.324 3.3h-47.019c-1.802 0-3.324-1.511-3.324-3.3v-166.104c9.955-3.104 18.684-8.079 25.44-14.374.835 11.201 4.535 23.337 10.207 33.168 4.62 8.009 10.252 14.203 16.658 18.43-6.26 6.215-10.144 14.817-10.144 24.31 0 8.815 3.354 16.861 8.852 22.938-9.726 5.227-16.353 15.486-16.353 27.264 0 12.821 7.852 23.844 19.007 28.533zm62.189-38.426h-50.2c-8.819 0-15.995-7.152-15.995-15.943s7.176-15.942 15.995-15.942h50.2c8.819 0 15.995 7.152 15.995 15.942 0 8.791-7.176 15.943-15.995 15.943zm-21.961-192.497h31.989c10.668 0 19.348 8.64 19.348 19.259 0 10.62-8.68 19.259-19.348 19.259h-31.989zm.015 66.032c-.008-1.775-.016-12.514-.016-12.514h31.989c10.668 0 19.348 8.652 19.348 19.288 0 10.558-8.622 19.198-19.177 19.259h-33.361c1.29-7.062 1.261-15.961 1.217-26.033zm21.946 41.033c10.668 0 19.347 8.652 19.347 19.287 0 10.62-8.679 19.259-19.347 19.259h-39.376c-10.652 0-19.318-8.64-19.318-19.259 0-8.626 5.702-15.945 13.54-18.404.089-.023.178-.046.267-.073 1.749-.521 3.596-.81 5.512-.81zm-43.922-131.301c3.773 0 6.961 3.147 6.961 6.872 0 0 .008 81.665.016 83.461.037 8.593.089 20.985-1.506 25.968 0 0-2.819-.842-8.845.932-18.076-4.206-28.042-29.405-28.303-46.583 0-.031-.001-.062-.002-.093-.018-1.133-.025-15.036-.025-27.544 0-4.142-3.357-7.5-7.5-7.5s-7.5 3.358-7.5 7.5c0 15.412-14.355 28.499-34.128 32.973-.158.03-.312.069-.466.108-4.584 1.001-9.453 1.542-14.497 1.542-4.143 0-7.5 3.358-7.5 7.5s3.357 7.5 7.5 7.5c3.008 0 5.964-.174 8.863-.486v119.923c-8.914-3.206-16.237-7.6-19.461-11.908-1.771-2.355-3.336-4.541-4.716-6.47-10.149-14.182-15.301-19.937-41.193-19.937h-63.667v-52.424c0-4.142-3.357-7.5-7.5-7.5s-7.5 3.358-7.5 7.5v59.925c0 5.165-4.219 9.366-9.403 9.366h-53.441c-5.17 0-9.376-4.202-9.376-9.366v-147.288c0-5.149 4.206-9.338 9.376-9.338h53.438c5.185 0 9.403 4.189 9.403 9.338v52.753c0 4.142 3.357 7.5 7.5 7.5s7.5-3.358 7.5-7.5v-45.253h36.904c41.372 0 65.991-7.859 82.307-26.265 8.358-9.379 20.713-15.206 32.241-15.206z"/></g></svg>